<svg width="25" height="16" viewBox="0 0 25 16" fill="none" xmlns="http://www.w3.org/2000/svg">
<path d="M24.0054 5.69922H0.994515C0.446136 5.69922 0 6.14536 0 6.69373V12.4671C0 13.0155 0.446136 13.4616 0.994515 13.4616H1.4085L0.919348 14.8422C0.817416 15.1298 0.968009 15.4456 1.25558 15.5475C1.31661 15.569 1.37889 15.5793 1.44013 15.5793C1.66755 15.5793 1.88063 15.4378 1.96092 15.2112L2.58084 13.4616H22.4192L23.0391 15.2112C23.1194 15.4378 23.3324 15.5793 23.5599 15.5793C23.6211 15.5793 23.6834 15.569 23.7444 15.5475C24.032 15.4455 24.1826 15.1297 24.0807 14.8422L23.5915 13.4616H24.0055C24.5539 13.4616 25 13.0155 25 12.4671V6.69373C25 6.14536 24.5539 5.69922 24.0054 5.69922Z" fill="#72716E"/>
<path fill-rule="evenodd" clip-rule="evenodd" d="M2.27646 1.60481C2.27646 0.718497 2.99496 0 3.88127 0H21.12C22.0063 0 22.7248 0.718497 22.7248 1.60481V3.31315C22.7248 4.19946 22.0063 4.91796 21.12 4.91796H21.0637C21.0106 4.05219 20.5824 3.41505 20.1368 3.05862C19.6747 2.68903 19.1113 2.48097 18.4878 2.48442C17.9256 2.48766 17.3952 2.66162 16.9679 3.00606C16.5406 2.66162 16.0102 2.48766 15.448 2.48442C14.8245 2.48097 14.2612 2.68903 13.7989 3.05862C13.3556 3.41324 12.9294 4.04454 12.8902 4.91399C12.8902 4.91532 12.8901 4.91664 12.8901 4.91796H12.112L12.1119 4.91452C12.0727 4.04507 11.6465 3.41377 11.2033 3.05915C10.7409 2.68956 10.1776 2.4815 9.55412 2.48495C8.99196 2.48819 8.46149 2.66215 8.03422 3.00659C7.60695 2.66215 7.07649 2.48819 6.51433 2.48495C5.89086 2.4815 5.32745 2.68956 4.86539 3.05915C4.41987 3.4155 3.99166 4.05246 3.93845 4.91796H3.88127C2.99495 4.91796 2.27646 4.19946 2.27646 3.31315V1.60481Z" fill="#72716E"/>
</svg>
