<svg width="21" height="20" viewBox="0 0 21 20" fill="none" xmlns="http://www.w3.org/2000/svg">
<path fill-rule="evenodd" clip-rule="evenodd" d="M3 8.5C3 5.46243 5.46243 3 8.5 3C11.5376 3 14 5.46243 14 8.5C14 11.5376 11.5376 14 8.5 14C5.46243 14 3 11.5376 3 8.5ZM8.5 1C4.35786 1 1 4.35786 1 8.5C1 12.6421 4.35786 16 8.5 16C10.5216 16 12.3565 15.2001 13.7052 13.8996C13.7612 13.9954 13.8341 14.0834 13.9236 14.1591L17.0648 16.8134L17.8286 17.4588L19.1195 15.9312L18.3557 15.2858L15.2145 12.6315C15.1129 12.5456 14.9992 12.4835 14.8801 12.4446C15.5901 11.2986 16 9.94719 16 8.5C16 4.35786 12.6421 1 8.5 1Z" fill="#72716E"/>
</svg>
